<?xml version="1.0" encoding="utf-8"?>
<!-- Generator: Adobe Illustrator 16.0.0, SVG Export Plug-In . SVG Version: 6.00 Build 0)  -->
<!DOCTYPE svg PUBLIC "-//W3C//DTD SVG 1.1//EN" "http://www.w3.org/Graphics/SVG/1.1/DTD/svg11.dtd">
<svg version="1.1" id="Layer_1" xmlns="http://www.w3.org/2000/svg" xmlns:xlink="http://www.w3.org/1999/xlink" x="0px" y="0px"
	 width="675px" height="175px" viewBox="0 0 675 175" style="enable-background:new 0 0 675 175;" xml:space="preserve">
<style type="text/css">
<![CDATA[
	.st0{enable-background:new    ;}
]]>
</style>
<g class="st0">
	<path d="M131.51,33.053c0,3.64-1.192,7.39-3.575,11.245c-2.385,3.857-5.525,7.604-9.425,11.244
		c-3.9,3.641-8.342,7.065-13.325,10.271c-4.985,3.207-10.055,6.024-15.21,8.45c-5.158,2.427-10.205,4.334-15.145,5.72
		c-4.94,1.388-9.36,2.08-13.26,2.08c-2.687,0-4.94-0.325-6.76-0.975c-1.82-0.65-2.73-1.798-2.73-3.445c0-0.692,0.15-1.3,0.455-1.82
		c0.302-0.52,0.67-0.952,1.105-1.3c0.433-0.346,0.865-0.605,1.3-0.78c0.433-0.173,0.735-0.26,0.91-0.26c0.26,0,0.39,0.13,0.39,0.39
		c0,0.695,0.26,1.258,0.78,1.69c0.52,0.435,1.147,0.76,1.885,0.975c0.735,0.218,1.495,0.37,2.275,0.455
		c0.78,0.088,1.43,0.13,1.95,0.13c3.9,0,8.167-0.692,12.805-2.08c4.635-1.385,9.272-3.27,13.91-5.654
		c4.636-2.383,9.121-5.091,13.455-8.125c4.333-3.033,8.168-6.218,11.505-9.556c3.335-3.335,6-6.694,7.995-10.074
		c1.993-3.38,2.99-6.543,2.99-9.49c0-4.16-1.518-7.04-4.55-8.646c-3.035-1.603-7.41-2.404-13.13-2.404
		c-6.415,0-13.044,1.04-19.89,3.12c-6.847,2.079-13.564,4.896-20.15,8.449c-6.587,3.555-12.827,7.735-18.72,12.545
		c-5.895,4.811-11.072,9.902-15.535,15.275c-4.465,5.375-7.995,10.92-10.595,16.64c-2.6,5.721-3.9,11.311-3.9,16.77
		c0,7.107,2.036,12.502,6.11,16.186c4.072,3.682,9.36,5.525,15.86,5.525c3.38,0,6.91-0.391,10.595-1.17
		c3.683-0.781,7.366-1.863,11.05-3.25c3.683-1.387,7.323-3.012,10.92-4.875c3.595-1.863,7.04-3.836,10.335-5.916
		c1.82-3.984,4.18-7.865,7.085-11.635c2.903-3.77,5.85-7.127,8.84-10.075c2.99-2.945,5.763-5.308,8.32-7.085
		c2.555-1.775,4.397-2.665,5.525-2.665c0.52,0,0.91,0.13,1.17,0.39c0.52,0.348,0.78,0.867,0.78,1.561c0,1.56-0.738,3.444-2.21,5.654
		c-1.475,2.21-3.489,4.615-6.045,7.216c-2.557,2.6-5.547,5.288-8.97,8.059c-3.425,2.775-7.13,5.506-11.115,8.191
		c-0.694,1.734-1.257,3.467-1.69,5.199c-0.435,1.734-0.65,3.467-0.65,5.199c0,6.586,3.163,9.881,9.49,9.881
		c2.253,0,4.29-0.195,6.11-0.586c1.82-0.389,3.51-0.91,5.07-1.559c1.56-0.65,3.075-1.453,4.55-2.406
		c1.473-0.955,3.033-2.037,4.68-3.25c0.433-0.346,0.78-0.52,1.04-0.52c0.26,0,0.39,0.131,0.39,0.391c0,0.434-0.26,0.867-0.78,1.299
		c-1.127,1.041-2.622,2.123-4.485,3.25c-1.865,1.125-3.88,2.188-6.045,3.186c-2.167,0.996-4.442,1.82-6.825,2.471
		c-2.385,0.648-4.745,0.975-7.085,0.975c-2.08,0-3.77-0.348-5.07-1.041c-1.3-0.693-2.32-1.582-3.055-2.664
		c-0.737-1.084-1.257-2.275-1.56-3.574c-0.305-1.301-0.455-2.559-0.455-3.771c0-1.559,0.173-3.141,0.52-4.744
		c0.346-1.604,0.823-3.229,1.43-4.875c-3.728,2.34-7.54,4.508-11.44,6.5c-3.9,1.994-7.757,3.75-11.57,5.266
		c-3.815,1.514-7.52,2.707-11.115,3.574c-3.597,0.865-6.955,1.301-10.075,1.301c-3.035,0-5.937-0.414-8.71-1.236
		c-2.774-0.824-5.222-2.08-7.345-3.77c-2.125-1.689-3.815-3.836-5.07-6.436c-1.257-2.6-1.885-5.633-1.885-9.1
		c0-7.02,1.43-13.887,4.29-20.605c2.86-6.715,6.715-13.021,11.57-18.915c4.853-5.893,10.443-11.287,16.77-16.185
		c6.325-4.896,12.935-9.121,19.825-12.676c6.89-3.552,13.865-6.305,20.93-8.255c7.063-1.949,13.715-2.925,19.955-2.925
		c4.16,0,7.67,0.348,10.53,1.04c2.86,0.694,5.155,1.67,6.89,2.925c1.733,1.258,2.968,2.71,3.705,4.355
		C131.141,29.371,131.51,31.148,131.51,33.053z M111.621,73.223c0-0.26-0.045-0.433-0.13-0.521c-0.087-0.085-0.26-0.13-0.52-0.13
		c-0.607,0-1.82,0.673-3.64,2.016c-1.82,1.345-3.835,3.164-6.045,5.46c-2.21,2.297-4.442,4.919-6.695,7.864
		c-2.254,2.947-4.16,6.068-5.72,9.361c3.292-2.254,6.348-4.551,9.165-6.891c2.815-2.34,5.22-4.592,7.215-6.76
		c1.993-2.165,3.553-4.138,4.68-5.915C111.056,75.933,111.621,74.438,111.621,73.223z"/>
	<path d="M181.04,99.223c0,0.52-0.478,1.041-1.43,1.561c-1.215,0.779-2.6,1.646-4.16,2.6c-1.3,0.779-2.774,1.67-4.42,2.666
		c-1.647,0.996-3.425,2.014-5.33,3.055c-3.035,1.646-5.59,2.84-7.67,3.574c-2.08,0.738-3.727,1.105-4.94,1.105
		c-2.427,0-3.64-1.082-3.64-3.25c0-1.561,0.541-3.465,1.625-5.721c1.083-2.252,2.34-4.439,3.77-6.564
		c1.43-2.123,2.795-4.029,4.095-5.721c1.3-1.689,2.123-2.707,2.47-3.055c0.605-0.605,0.91-1.213,0.91-1.82
		c0-0.26-0.13-0.39-0.39-0.39c-0.087,0-0.845,0.455-2.275,1.366c-1.43,0.908-3.165,2.059-5.2,3.443
		c-2.038,1.389-4.27,2.861-6.695,4.42c-2.427,1.561-4.702,3.035-6.825,4.42c-2.125,1.389-3.945,2.602-5.46,3.641
		c-1.517,1.041-2.449,1.648-2.795,1.82c-0.52,0.26-1.192,0.672-2.015,1.234c-0.825,0.564-1.647,1.105-2.47,1.625
		c-0.825,0.521-1.54,0.998-2.145,1.43c-0.607,0.436-0.997,0.695-1.17,0.781c-0.347,0.26-0.825,0.389-1.43,0.389
		c-0.52,0-0.867-0.129-1.04-0.389c-0.087-0.086-0.13-0.303-0.13-0.65c0-0.346,0.39-1.039,1.17-2.08l13.78-16.119
		c0.26-0.262,0.39-0.521,0.39-0.781c0-0.52-0.217-0.779-0.65-0.779c-0.26,0-0.564,0.088-0.91,0.26
		c-0.175,0.088-0.348,0.217-0.52,0.391c-1.3,0.779-2.71,1.711-4.225,2.795c-1.518,1.084-3.012,2.145-4.485,3.184
		c-1.475,1.041-2.84,1.996-4.095,2.861c-1.257,0.867-2.232,1.518-2.925,1.949c-0.175,0.176-0.37,0.326-0.585,0.455
		c-0.217,0.131-0.412,0.195-0.585,0.195c-0.347,0-0.52-0.172-0.52-0.52c0-0.521,0.476-1.041,1.43-1.561
		c0.953-0.693,1.863-1.365,2.73-2.016c0.865-0.648,1.775-1.277,2.73-1.885c1.82-1.299,3.595-2.555,5.33-3.77
		c1.473-1.041,3.12-2.188,4.94-3.445c1.82-1.256,3.51-2.36,5.07-3.315c0.346-0.173,0.801-0.41,1.365-0.715
		c0.563-0.303,1.105-0.455,1.625-0.455c0.433,0,0.735,0.088,0.91,0.26c0.433,0.435,0.65,0.867,0.65,1.301
		c0,1.04-0.607,2.297-1.82,3.77c-0.348,0.434-1.17,1.387-2.47,2.859c-1.3,1.475-2.665,3.012-4.095,4.615
		c-1.43,1.605-2.752,3.055-3.965,4.355c-1.215,1.299-1.907,2.08-2.08,2.34c-0.26,0.26-0.39,0.477-0.39,0.65
		c0,0.26,0.13,0.389,0.39,0.389c0.085-0.084,0.888-0.605,2.405-1.559c1.515-0.953,3.357-2.123,5.525-3.512
		c2.165-1.385,4.505-2.902,7.02-4.549c2.513-1.646,4.875-3.186,7.085-4.615s4.095-2.643,5.655-3.641
		c1.56-0.995,2.425-1.538,2.6-1.625c0.345-0.173,0.93-0.54,1.755-1.104c0.823-0.563,1.668-1.148,2.535-1.756
		c0.865-0.604,1.667-1.17,2.405-1.689c0.735-0.521,1.19-0.823,1.365-0.91c0.52-0.346,0.995-0.52,1.43-0.52
		c0.433,0,0.78,0.174,1.04,0.52c0.172,0.348,0.26,0.607,0.26,0.78c0,0.435-0.13,0.845-0.39,1.234c-0.26,0.391-0.52,0.716-0.78,0.976
		c-3.208,3.467-5.85,6.479-7.93,9.036s-3.705,4.789-4.875,6.693c-1.17,1.908-1.995,3.49-2.47,4.746
		c-0.478,1.258-0.715,2.275-0.715,3.055c0,0.695,0.15,1.258,0.455,1.689c0.303,0.436,0.628,0.738,0.975,0.91
		c0.345,0.26,0.78,0.348,1.3,0.26c0.693,0,1.473-0.129,2.34-0.389c0.865-0.26,1.645-0.563,2.34-0.91
		c0.865-0.346,1.733-0.736,2.6-1.17c1.04-0.521,2.34-1.191,3.9-2.016c1.56-0.822,3.12-1.689,4.68-2.6s2.967-1.756,4.225-2.535
		c1.255-0.779,2.058-1.344,2.405-1.689c0.433-0.262,0.735-0.391,0.91-0.391C180.865,98.703,181.04,98.877,181.04,99.223z"/>
	<path d="M223.258,99.482c0,0.521-0.478,1.041-1.43,1.561c-0.695,0.348-2.275,1.344-4.745,2.99c-2.47,1.646-5.439,3.379-8.905,5.199
		c-2.775,1.475-5.395,2.904-7.865,4.291c-2.47,1.385-4.834,2.771-7.091,4.16c-3.041,3.553-6.189,7.191-9.445,10.92
		c-3.258,3.725-6.427,7.344-9.51,10.854c-3.083,3.512-6.035,6.846-8.856,10.012c-2.821,3.162-5.34,5.914-7.556,8.254
		c-2.212,2.34-4.059,4.18-5.535,5.525c-1.475,1.342-2.432,2.016-2.866,2.016c-0.607,0-1.15-0.283-1.629-0.846
		c-0.476-0.564-0.715-1.713-0.715-3.445c0-2.859,1.239-6.133,3.711-9.814c2.476-3.686,5.777-7.498,9.9-11.439
		c4.127-3.945,8.903-7.91,14.33-11.896c5.428-3.986,11.093-7.756,16.998-11.309c1.824-2.168,3.561-4.291,5.21-6.371
		s3.213-4.072,4.69-5.98c0.26-0.26,0.39-0.475,0.39-0.648c0-0.086-0.087-0.131-0.26-0.131c-0.174,0-0.305,0.045-0.39,0.131
		c-0.609,0.434-1.894,1.279-3.85,2.535c-1.958,1.256-4.176,2.557-6.654,3.898c-2.48,1.346-5.003,2.535-7.568,3.576
		c-2.567,1.039-4.808,1.559-6.721,1.559c-1.392,0-2.5-0.346-3.327-1.039c-0.827-0.693-1.239-1.906-1.239-3.641
		c0-1.385,0.587-3.031,1.761-4.939c1.174-1.904,2.76-3.877,4.761-5.914c1.999-2.037,4.259-4.031,6.782-5.98
		c2.521-1.951,5.151-3.705,7.892-5.266c2.738-1.56,5.434-2.815,8.086-3.77c2.653-0.952,5.066-1.43,7.24-1.43
		c0.955,0,1.606,0.13,1.956,0.39c0.347,0.261,0.522,0.737,0.522,1.431c0,0.779-1.001,1.799-3.002,3.055
		c-2,1.256-4.501,2.645-7.503,4.161c-3.002,1.518-6.307,3.1-9.917,4.744c-3.611,1.648-7.026,3.207-10.244,4.68
		c-1.219,1.389-2.153,2.666-2.805,3.836c-0.654,1.17-0.979,2.232-0.979,3.184c0,1.215,0.346,2.039,1.04,2.471
		c0.693,0.436,1.56,0.65,2.6,0.65c1.213,0,2.578-0.238,4.095-0.715c1.515-0.477,2.967-0.996,4.355-1.561
		c1.385-0.563,2.643-1.146,3.77-1.754c1.125-0.605,1.905-1.041,2.34-1.301c2.513-1.473,4.658-2.838,6.435-4.096
		c1.775-1.254,2.88-2.1,3.315-2.535c0.953-0.691,1.69-1.039,2.21-1.039c0.345,0,0.585,0.129,0.715,0.391
		c0.13,0.26,0.195,0.52,0.195,0.779c0,0.348-0.043,0.564-0.128,0.65c-0.087,0.26-0.346,0.65-0.774,1.17
		c-0.431,0.52-0.902,1.105-1.418,1.754c-0.516,0.65-1.054,1.258-1.611,1.82c-0.559,0.564-0.967,1.02-1.225,1.365
		c-1.032,1.215-2.062,2.404-3.094,3.574c-1.032,1.172-2.062,2.363-3.092,3.576c1.733-0.953,3.445-1.885,5.135-2.795
		s3.4-1.799,5.135-2.666c1.04-0.52,2.34-1.234,3.9-2.145c1.56-0.91,3.098-1.82,4.615-2.73c1.515-0.91,2.88-1.732,4.095-2.469
		c1.212-0.736,1.993-1.277,2.34-1.625c0.433-0.26,0.735-0.391,0.91-0.391C223.083,98.963,223.258,99.137,223.258,99.482z
		 M188.661,120.543c-8.166,5.199-14.765,9.988-19.802,14.365c-5.038,4.375-8.923,8.232-11.662,11.57
		c-2.734,3.334-4.558,6.129-5.472,8.385c-0.91,2.252-1.367,3.941-1.367,5.07c0,0.52,0.217,0.779,0.652,0.779
		c0.609,0,2.151-1.191,4.625-3.574c2.476-2.385,5.495-5.482,9.053-9.295c3.561-3.816,7.449-8.105,11.662-12.871
		C180.563,130.205,184.666,125.396,188.661,120.543z M207.688,85.963c0-0.78-0.563-1.171-1.686-1.171
		c-1.21,0-2.764,0.413-4.666,1.235c-1.901,0.825-3.91,1.907-6.027,3.25c-2.117,1.346-4.255,2.861-6.417,4.551
		c-2.162,1.689-4.105,3.402-5.832,5.135c2.765-1.301,5.594-2.621,8.489-3.965c2.895-1.342,5.531-2.6,7.908-3.77
		s4.341-2.211,5.896-3.121C206.91,87.198,207.688,86.483,207.688,85.963z"/>
	<path d="M262.157,99.223c0,0.52-0.478,1.041-1.43,1.561c-1.215,0.779-2.6,1.646-4.16,2.6c-1.3,0.779-2.774,1.67-4.42,2.666
		c-1.647,0.996-3.425,2.014-5.33,3.055c-1.127,0.607-2.535,1.279-4.225,2.014c-1.69,0.738-3.532,1.432-5.525,2.08
		c-1.995,0.65-4.01,1.213-6.045,1.691c-2.037,0.475-3.965,0.715-5.785,0.715c-2.254,0-4.16-0.48-5.72-1.436s-2.34-2.697-2.34-5.219
		c0-1.652,0.541-3.521,1.625-5.609c1.083-2.088,2.535-4.219,4.355-6.395c1.82-2.172,3.9-4.303,6.24-6.393
		c2.34-2.088,4.831-3.936,7.475-5.544c2.643-1.608,5.308-2.915,7.995-3.914c2.685-1,5.243-1.501,7.67-1.501
		c3.033,0,4.55,0.784,4.55,2.35c0,1.305-0.997,2.958-2.99,4.959c-1.995,2.002-4.615,4.002-7.865,6.004
		c-3.25,2-6.912,3.807-10.985,5.414c-4.075,1.611-8.147,2.721-12.22,3.33c-0.78,1.654-1.17,3.174-1.17,4.566
		c0,0.262,0.042,0.74,0.13,1.436c0.085,0.697,0.368,1.414,0.845,2.154c0.475,0.738,1.235,1.412,2.275,2.021s2.47,0.914,4.29,0.914
		c1.733,0,3.9-0.344,6.5-1.039c2.6-0.693,5.805-1.949,9.62-3.77c1.04-0.521,2.34-1.191,3.9-2.016c1.56-0.822,3.12-1.689,4.68-2.6
		s2.967-1.756,4.225-2.535c1.255-0.779,2.058-1.344,2.405-1.689c0.433-0.262,0.735-0.391,0.91-0.391
		C261.983,98.703,262.157,98.877,262.157,99.223z M252.797,83.363c0-1.04-1.04-1.56-3.12-1.56c-2.167,0-4.507,0.585-7.02,1.755
		c-2.515,1.17-4.962,2.645-7.345,4.42c-2.385,1.778-4.595,3.77-6.63,5.979c-2.038,2.211-3.663,4.355-4.875,6.436
		c3.12-0.52,6.39-1.516,9.815-2.99c3.422-1.473,6.542-3.074,9.36-4.809c2.815-1.734,5.155-3.445,7.02-5.136
		C251.865,85.768,252.797,84.403,252.797,83.363z"/>
	<path d="M346.915,26.813c0,2.34-1.365,5.439-4.095,9.295c-2.73,3.857-6.37,8.082-10.92,12.675
		c-4.55,4.595-9.75,9.383-15.601,14.365c-5.85,4.984-11.895,9.837-18.135,14.56c-6.24,4.726-12.437,9.101-18.59,13.13
		c-6.155,4.029-11.787,7.432-16.9,10.205c-0.347,0.955-0.63,1.885-0.845,2.795c-0.217,0.91-0.282,1.713-0.195,2.404
		c0.173,2.516,0.865,4.205,2.08,5.07c1.212,0.867,2.643,1.301,4.29,1.301c1.385,0,2.815-0.215,4.29-0.65
		c1.473-0.432,2.86-0.91,4.16-1.43c1.3-0.52,2.405-1.018,3.315-1.496c0.91-0.475,1.495-0.756,1.755-0.844
		c0.953-0.52,2.21-1.213,3.77-2.08c1.56-0.865,3.12-1.756,4.68-2.666s2.99-1.732,4.29-2.469c1.3-0.736,2.123-1.277,2.47-1.625
		c0.433-0.26,0.735-0.391,0.91-0.391c0.345,0,0.52,0.174,0.52,0.52c0,0.521-0.477,1.041-1.43,1.561
		c-0.435,0.26-1.322,0.824-2.665,1.689c-1.345,0.867-2.99,1.885-4.94,3.055c-1.95,1.17-4.14,2.385-6.565,3.641
		c-2.428,1.258-4.94,2.404-7.54,3.445c-1.735,0.693-3.425,1.234-5.07,1.625c-1.647,0.391-3.207,0.584-4.68,0.584
		c-2.34,0-4.29-0.564-5.85-1.689s-2.34-2.99-2.34-5.59c0-2.859,0.995-6.24,2.99-10.141c1.993-3.898,4.7-8.102,8.125-12.609
		c3.423-4.506,7.345-9.143,11.765-13.91c4.42-4.766,9.055-9.445,13.91-14.04c4.853-4.593,9.75-8.926,14.69-13
		c4.94-4.072,9.62-7.647,14.04-10.725c4.42-3.076,8.405-5.503,11.96-7.28c3.553-1.775,6.325-2.665,8.32-2.665
		c1.125,0,2.079,0.26,2.859,0.78C346.526,24.733,346.915,25.6,346.915,26.813z M342.495,28.113c0-1.3-0.607-1.95-1.82-1.95
		c-2.079,0-5.18,1.215-9.295,3.641c-4.117,2.427-8.71,5.635-13.779,9.62c-5.07,3.987-10.357,8.537-15.86,13.649
		c-5.505,5.115-10.747,10.357-15.73,15.73c-4.985,5.374-9.447,10.64-13.39,15.795c-3.944,5.158-6.87,9.773-8.775,13.845
		c4.073-1.906,8.84-4.723,14.3-8.451c5.46-3.724,11.115-7.884,16.965-12.479c5.85-4.593,11.59-9.403,17.225-14.431
		c5.632-5.024,10.68-9.835,15.145-14.43c4.463-4.593,8.08-8.71,10.854-12.35C341.109,32.663,342.495,29.933,342.495,28.113z"/>
	<path d="M324.425,99.223c0,0.52-0.479,1.041-1.43,1.561c-1.215,0.779-2.602,1.646-4.16,2.6c-1.301,0.779-2.775,1.67-4.42,2.666
		c-1.647,0.996-3.425,2.014-5.33,3.055c-0.607,0.348-1.54,0.844-2.795,1.494c-1.258,0.65-2.6,1.301-4.03,1.951
		c-1.43,0.648-2.905,1.211-4.42,1.689c-1.518,0.475-2.882,0.715-4.095,0.715c-1.214,0-2.167-0.26-2.86-0.779
		c-0.695-0.521-1.04-1.432-1.04-2.73c0-1.732,0.888-3.855,2.665-6.371c1.775-2.512,3.748-4.939,5.915-7.279
		c2.513-2.773,5.373-5.633,8.58-8.58c0.345-0.346,0.735-0.52,1.17-0.52c0.78,0,1.17,0.389,1.17,1.17c0,0.52-0.175,0.955-0.52,1.299
		c-0.78,0.869-1.972,2.104-3.575,3.705c-1.605,1.605-3.208,3.316-4.81,5.137c-1.605,1.818-3.013,3.639-4.225,5.459
		c-1.215,1.82-1.82,3.381-1.82,4.68c0,1.215,0.78,1.82,2.34,1.82c0.78,0,1.71-0.15,2.795-0.455c1.083-0.303,2.145-0.67,3.185-1.105
		c1.04-0.432,2.015-0.887,2.925-1.365c0.91-0.475,1.625-0.844,2.145-1.104c1.04-0.521,2.34-1.191,3.9-2.016
		c1.56-0.822,3.12-1.689,4.68-2.6c1.561-0.91,2.967-1.756,4.225-2.535c1.256-0.779,2.059-1.344,2.406-1.689
		c0.432-0.262,0.734-0.391,0.91-0.391C324.249,98.703,324.425,98.877,324.425,99.223z M322.995,74.003
		c0,1.214-0.479,2.274-1.432,3.185s-2.123,1.365-3.51,1.365c-0.434,0-0.76-0.108-0.975-0.325c-0.217-0.216-0.412-0.41-0.584-0.585
		c-0.176-0.26-0.261-0.521-0.261-0.78c0-0.865,0.563-1.82,1.69-2.859c1.125-1.04,2.209-1.561,3.25-1.561
		C322.388,72.443,322.995,72.963,322.995,74.003z"/>
	<path d="M394.364,63.083c0,0.607-0.13,1.105-0.391,1.495c-0.26,0.391-1.257,0.63-2.989,0.715c-1.04,0-2.58,0-4.615,0
		c-2.037,0-4.399-0.02-7.085-0.064c-2.688-0.043-5.612-0.085-8.775-0.13c-3.164-0.043-6.35-0.065-9.555-0.065
		c-3.295,3.468-6.805,7.064-10.53,10.79c-3.728,3.728-7.345,7.237-10.854,10.53c-3.511,3.295-6.74,6.219-9.686,8.776
		c-2.947,2.557-5.2,4.441-6.76,5.654c-1.734,3.207-2.6,5.85-2.6,7.93c0,0.867,0.28,1.453,0.845,1.756
		c0.563,0.305,1.277,0.455,2.145,0.455c0.953,0,2.035-0.15,3.25-0.455c1.213-0.303,2.318-0.629,3.315-0.977
		c0.995-0.344,1.82-0.648,2.47-0.91c0.65-0.26,0.931-0.344,0.845-0.26c0.953-0.52,2.21-1.213,3.771-2.08
		c1.56-0.865,3.12-1.754,4.68-2.664c1.561-0.91,2.99-1.732,4.29-2.471c1.3-0.734,2.123-1.277,2.47-1.625
		c0.433-0.26,0.735-0.389,0.91-0.389c0.346,0,0.521,0.174,0.521,0.52c0,0.52-0.478,1.039-1.431,1.561
		c-0.954,0.607-2.037,1.299-3.25,2.08c-1.04,0.693-2.231,1.43-3.574,2.209c-1.345,0.779-2.84,1.646-4.485,2.6
		c-3.555,1.996-6.739,3.533-9.555,4.615c-2.817,1.082-5.136,1.625-6.955,1.625c-2.86,0-4.29-1.342-4.29-4.029
		c0-1.992,1.018-4.701,3.055-8.125c2.035-3.424,4.68-7.215,7.93-11.375c3.25-4.161,6.911-8.515,10.985-13.066
		c4.072-4.55,8.103-8.86,12.09-12.935c-2.427-0.085-4.725-0.15-6.89-0.195c-2.167-0.042-4.053-0.064-5.655-0.064
		c-1.604,0-2.882,0-3.835,0c-0.954,0-1.475,0-1.56,0c-0.607,0-1.02-0.195-1.235-0.585c-0.218-0.391-0.325-0.801-0.325-1.235
		c0.086-0.865,0.823-1.385,2.21-1.56c1.733,0,3.726,0.044,5.98,0.13c1.905,0.087,4.095,0.152,6.564,0.194
		c2.471,0.045,5.091,0.11,7.865,0.195c2.513-2.513,4.896-4.83,7.15-6.955c2.252-2.122,4.268-3.965,6.045-5.524
		c1.775-1.561,3.292-2.773,4.55-3.641c1.255-0.865,2.101-1.3,2.535-1.3c0.433,0,0.735,0.087,0.91,0.26
		c0.26,0.261,0.39,0.565,0.39,0.91c0,1.388-1.063,3.532-3.185,6.436c-2.125,2.904-4.833,6.22-8.125,9.944
		c3.64,0.088,7.192,0.152,10.659,0.195c3.466,0.045,6.586,0.087,9.36,0.13c2.772,0.045,5.025,0.087,6.76,0.13
		c1.733,0.045,2.686,0.065,2.86,0.065C394.103,62.303,394.364,62.563,394.364,63.083z M352.763,64.903
		c-2.427,2.428-4.919,5.005-7.475,7.735c-2.558,2.729-5.07,5.505-7.54,8.319c-2.47,2.817-4.79,5.612-6.955,8.386
		c-2.167,2.773-4.03,5.416-5.59,7.93c1.56-1.213,3.66-3.012,6.305-5.395c2.643-2.383,5.48-5.071,8.516-8.061
		c3.032-2.99,6.152-6.13,9.359-9.425c3.205-3.293,6.152-6.455,8.84-9.49H352.763z M368.883,50.603c0-0.26-0.087-0.39-0.26-0.39
		c-0.348,0-1.69,1.062-4.03,3.185c-2.34,2.125-5.2,4.875-8.58,8.255c0.865,0,1.69,0,2.471,0c0.779,0,1.645,0.045,2.6,0.13
		c2.253-2.686,4.115-5.025,5.59-7.02C368.146,52.77,368.883,51.383,368.883,50.603z"/>
	<path d="M401.512,99.613c0,0.52-0.478,1.039-1.43,1.561c-0.955,0.607-2.038,1.299-3.25,2.08c-1.04,0.693-2.232,1.43-3.575,2.209
		c-1.345,0.779-2.84,1.646-4.485,2.6c-1.127,0.607-2.427,1.322-3.899,2.145c-1.476,0.826-3.013,1.625-4.615,2.406
		c-1.604,0.779-3.186,1.43-4.745,1.949c-1.561,0.52-2.947,0.781-4.16,0.781c-1.994,0-2.99-0.91-2.99-2.73
		c0-0.693,0.13-1.451,0.391-2.275c0.26-0.822,0.563-1.604,0.91-2.34c0.345-0.736,0.649-1.385,0.909-1.949
		c0.261-0.564,0.433-0.889,0.521-0.977c0-0.172-0.088-0.26-0.26-0.26c-0.348,0-1.258,0.52-2.73,1.561
		c-1.475,1.039-3.272,2.168-5.395,3.381c-2.125,1.213-4.4,2.34-6.825,3.379c-2.428,1.041-4.768,1.561-7.021,1.561
		c-3.814,0-5.72-1.344-5.72-4.031c0-1.473,0.585-3.25,1.755-5.33c1.17-2.078,2.75-4.225,4.745-6.434
		c1.993-2.211,4.311-4.398,6.955-6.566c2.643-2.164,5.46-4.115,8.45-5.849c2.99-1.732,6.045-3.12,9.165-4.16s6.152-1.56,9.1-1.56
		c3.033,0,5.048,0.39,6.045,1.17c0.995,0.78,1.495,1.647,1.495,2.6c0,1.04-0.478,2.146-1.43,3.315
		c-0.955,1.169-2.103,2.255-3.445,3.25c-1.345,0.998-2.752,1.885-4.225,2.666c-1.475,0.779-2.73,1.387-3.771,1.818
		c-0.175,0.088-0.435,0.131-0.78,0.131c-0.435,0-0.824-0.131-1.17-0.391c-0.347-0.26-0.607-0.563-0.779-0.91
		c-0.175-0.344-0.261-0.604-0.261-0.779c0-0.346,0.346-0.693,1.04-1.039c0.086,0,0.693-0.281,1.82-0.846
		c1.125-0.563,2.34-1.234,3.64-2.016c1.301-0.779,2.471-1.645,3.511-2.599c1.04-0.953,1.56-1.863,1.56-2.73
		c0-0.692-0.282-1.255-0.845-1.689c-0.564-0.433-1.322-0.65-2.275-0.65c-2.688,0-5.439,0.455-8.255,1.365
		c-2.817,0.91-5.547,2.124-8.189,3.64c-2.646,1.518-5.115,3.208-7.41,5.071c-2.298,1.863-4.335,3.77-6.11,5.719
		c-1.777,1.951-3.165,3.814-4.16,5.59c-0.997,1.777-1.495,3.316-1.495,4.615c0,1.041,0.368,1.885,1.105,2.535
		c0.735,0.65,1.97,0.975,3.705,0.975c1.819,0,3.965-0.539,6.435-1.625c2.471-1.082,4.853-2.34,7.15-3.77
		c2.295-1.43,4.332-2.859,6.109-4.289c1.775-1.432,2.926-2.535,3.445-3.316c0.521-0.779,1.125-1.17,1.82-1.17
		c0.173,0,0.39,0.066,0.649,0.195c0.261,0.131,0.391,0.326,0.391,0.586c0,0.434-0.282,0.975-0.845,1.625
		c-0.565,0.648-1.192,1.494-1.886,2.535c-0.347,0.434-0.824,1.408-1.43,2.924c-0.607,1.518-0.91,2.971-0.91,4.355
		c0,1.387,0.735,2.08,2.21,2.08c0.865,0,1.841-0.195,2.925-0.586c1.083-0.389,2.101-0.799,3.056-1.234
		c0.952-0.432,1.755-0.822,2.404-1.17c0.65-0.346,0.888-0.475,0.716-0.391c0.952-0.52,2.21-1.213,3.77-2.08
		c1.56-0.865,3.12-1.754,4.68-2.664c1.561-0.91,2.99-1.732,4.29-2.471c1.301-0.734,2.123-1.277,2.471-1.625
		c0.433-0.26,0.735-0.389,0.909-0.389C401.337,99.094,401.512,99.268,401.512,99.613z"/>
	<path d="M542.69,26.813c0,3.207-1.104,6.782-3.314,10.725c-2.21,3.945-5.2,7.91-8.971,11.896c-3.77,3.987-8.146,7.887-13.13,11.7
		c-4.984,3.814-10.205,7.194-15.665,10.14c-5.46,2.947-10.984,5.31-16.574,7.085c-5.591,1.777-10.942,2.665-16.056,2.665
		c-2.688,0-4.939-0.325-6.76-0.975c-1.82-0.65-2.73-1.798-2.73-3.445c0-0.692,0.15-1.3,0.455-1.82c0.303-0.52,0.671-0.952,1.105-1.3
		c0.433-0.346,0.865-0.605,1.3-0.78c0.433-0.172,0.735-0.26,0.91-0.26c0.26,0,0.39,0.13,0.39,0.39c0,0.695,0.261,1.258,0.78,1.69
		c0.52,0.435,1.147,0.76,1.885,0.975c0.735,0.218,1.495,0.37,2.275,0.455c0.78,0.088,1.43,0.13,1.95,0.13
		c4.332,0,9.013-0.845,14.04-2.534c5.025-1.69,9.987-3.9,14.885-6.631c4.896-2.729,9.62-5.85,14.17-9.359s8.558-7.105,12.025-10.79
		c3.465-3.683,6.239-7.323,8.319-10.92c2.08-3.596,3.12-6.825,3.12-9.686c0-3.032-1.365-5.479-4.095-7.345
		c-2.73-1.862-7.215-2.795-13.455-2.795c-6.415,0-13.109,1.105-20.085,3.315c-6.978,2.21-13.825,5.18-20.54,8.904
		c-6.718,3.728-13.109,8.104-19.175,13.13c-6.067,5.027-11.397,10.315-15.99,15.86c-4.595,5.548-8.234,11.245-10.92,17.095
		c-2.688,5.851-4.03,11.505-4.03,16.965c0,7.107,2.035,12.502,6.11,16.186c4.072,3.684,9.359,5.525,15.859,5.525
		c5.2,0,10.335-0.65,15.405-1.951c5.07-1.299,9.945-2.99,14.625-5.07c4.506-4.939,8.948-9.662,13.325-14.17
		c4.375-4.504,8.385-8.45,12.025-11.83c3.64-3.38,6.802-6.065,9.489-8.06c2.686-1.993,4.593-2.99,5.721-2.99
		c2.252,0,3.38,0.78,3.38,2.34s-1.063,3.685-3.186,6.37c-2.124,2.688-4.962,5.635-8.515,8.84c-3.555,3.207-7.715,6.5-12.48,9.88
		c-4.767,3.379-9.837,6.5-15.21,9.359c-5.114,5.809-10.227,11.766-15.34,17.875c-5.114,6.109-9.685,11.809-13.715,17.096
		c-4.03,5.285-7.303,9.879-9.815,13.779c-2.515,3.9-3.77,6.543-3.77,7.93c0,0.26,0.085,0.521,0.26,0.781
		c0.173,0.26,0.26,0.563,0.26,0.91c0,0.432-0.194,0.865-0.585,1.299c-0.39,0.434-0.845,0.822-1.364,1.17
		c-0.521,0.346-1.063,0.65-1.625,0.91c-0.565,0.26-1.021,0.391-1.365,0.391c-1.128,0-1.69-0.695-1.69-2.08
		c0-1.734,1.17-4.551,3.511-8.451c2.34-3.898,5.415-8.43,9.229-13.584c3.813-5.158,8.19-10.705,13.13-16.641
		c4.94-5.938,10.01-11.809,15.21-17.615c-4.939,2.256-9.902,4.051-14.885,5.396c-4.984,1.342-9.772,2.014-14.365,2.014
		c-3.034,0-5.938-0.412-8.71-1.234c-2.774-0.824-5.222-2.08-7.345-3.77c-2.125-1.691-3.814-3.836-5.07-6.436
		c-1.257-2.6-1.885-5.633-1.885-9.1c0-7.02,1.473-13.93,4.42-20.735c2.945-6.803,6.91-13.261,11.896-19.37
		c4.982-6.11,10.725-11.721,17.225-16.835c6.5-5.113,13.28-9.533,20.345-13.261c7.063-3.725,14.17-6.63,21.32-8.71
		s13.845-3.12,20.085-3.12c7.8,0,13.41,1.15,16.835,3.445C540.978,20.076,542.69,23.087,542.69,26.813z M520.72,73.353
		c0-0.865-0.478-1.3-1.43-1.3c-0.695,0-1.995,0.779-3.9,2.34c-1.907,1.56-4.225,3.705-6.955,6.435
		c-2.729,2.73-5.808,5.938-9.229,9.62c-3.425,3.686-7,7.605-10.726,11.766c4.681-2.512,8.99-5.242,12.936-8.189
		c3.942-2.945,7.345-5.764,10.205-8.451c2.859-2.686,5.09-5.135,6.694-7.345C519.917,76.018,520.72,74.393,520.72,73.353z"/>
	<path d="M542.948,99.223c0,0.52-0.478,1.041-1.43,1.561c-1.215,0.779-2.601,1.646-4.16,2.6c-1.3,0.779-2.774,1.67-4.42,2.666
		c-1.647,0.996-3.425,2.014-5.33,3.055c-0.607,0.348-1.54,0.844-2.795,1.494c-1.258,0.65-2.601,1.301-4.03,1.951
		c-1.43,0.648-2.904,1.211-4.42,1.689c-1.518,0.475-2.883,0.715-4.095,0.715c-1.215,0-2.168-0.26-2.86-0.779
		c-0.694-0.521-1.04-1.432-1.04-2.73c0-1.732,0.888-3.855,2.665-6.371c1.775-2.512,3.748-4.939,5.915-7.279
		c2.513-2.773,5.373-5.633,8.58-8.58c0.346-0.346,0.735-0.52,1.17-0.52c0.78,0,1.17,0.389,1.17,1.17c0,0.52-0.175,0.955-0.52,1.299
		c-0.78,0.869-1.973,2.104-3.575,3.705c-1.604,1.605-3.208,3.316-4.811,5.137c-1.604,1.818-3.012,3.639-4.225,5.459
		c-1.215,1.82-1.82,3.381-1.82,4.68c0,1.215,0.78,1.82,2.34,1.82c0.78,0,1.711-0.15,2.796-0.455c1.082-0.303,2.145-0.67,3.185-1.105
		c1.04-0.432,2.015-0.887,2.925-1.365c0.91-0.475,1.625-0.844,2.146-1.104c1.04-0.521,2.34-1.191,3.899-2.016
		c1.561-0.822,3.12-1.689,4.681-2.6c1.56-0.91,2.967-1.756,4.225-2.535c1.255-0.779,2.058-1.344,2.405-1.689
		c0.433-0.262,0.735-0.391,0.91-0.391C542.774,98.703,542.948,98.877,542.948,99.223z M541.519,74.003
		c0,1.214-0.478,2.274-1.431,3.185c-0.954,0.91-2.124,1.365-3.51,1.365c-0.435,0-0.76-0.108-0.975-0.325
		c-0.218-0.216-0.413-0.41-0.585-0.585c-0.175-0.26-0.261-0.521-0.261-0.78c0-0.865,0.563-1.82,1.69-2.859
		c1.125-1.04,2.21-1.561,3.25-1.561C540.911,72.443,541.519,72.963,541.519,74.003z"/>
	<path d="M627.577,26.813c0,2.34-1.365,5.439-4.095,9.295c-2.73,3.857-6.37,8.082-10.92,12.675
		c-4.55,4.595-9.75,9.383-15.601,14.365c-5.85,4.984-11.895,9.837-18.135,14.56c-6.24,4.726-12.438,9.101-18.59,13.13
		c-6.154,4.029-11.787,7.432-16.9,10.205c-0.347,0.955-0.629,1.885-0.845,2.795c-0.217,0.91-0.282,1.713-0.194,2.404
		c0.172,2.516,0.865,4.205,2.079,5.07c1.213,0.867,2.644,1.301,4.29,1.301c1.386,0,2.815-0.215,4.29-0.65
		c1.473-0.432,2.86-0.91,4.16-1.43s2.405-1.018,3.315-1.496c0.91-0.475,1.495-0.756,1.755-0.844c0.952-0.52,2.21-1.213,3.77-2.08
		c1.561-0.865,3.12-1.756,4.681-2.666c1.56-0.91,2.989-1.732,4.29-2.469c1.3-0.736,2.122-1.277,2.47-1.625
		c0.433-0.26,0.735-0.391,0.91-0.391c0.345,0,0.52,0.174,0.52,0.52c0,0.521-0.478,1.041-1.43,1.561
		c-0.435,0.26-1.322,0.824-2.665,1.689c-1.345,0.867-2.99,1.885-4.94,3.055c-1.949,1.17-4.14,2.385-6.564,3.641
		c-2.428,1.258-4.94,2.404-7.54,3.445c-1.734,0.693-3.425,1.234-5.07,1.625c-1.647,0.391-3.207,0.584-4.68,0.584
		c-2.34,0-4.29-0.564-5.851-1.689c-1.56-1.125-2.34-2.99-2.34-5.59c0-2.859,0.996-6.24,2.99-10.141
		c1.993-3.898,4.7-8.102,8.125-12.609c3.423-4.506,7.345-9.143,11.765-13.91c4.421-4.766,9.056-9.445,13.91-14.04
		c4.853-4.593,9.75-8.926,14.69-13c4.939-4.072,9.62-7.647,14.04-10.725c4.42-3.076,8.405-5.503,11.96-7.28
		c3.553-1.775,6.325-2.665,8.32-2.665c1.125,0,2.079,0.26,2.859,0.78C627.188,24.733,627.577,25.6,627.577,26.813z M623.157,28.113
		c0-1.3-0.607-1.95-1.82-1.95c-2.079,0-5.18,1.215-9.295,3.641c-4.117,2.427-8.71,5.635-13.779,9.62
		c-5.07,3.987-10.357,8.537-15.86,13.649c-5.505,5.115-10.747,10.357-15.729,15.73c-4.985,5.374-9.448,10.64-13.391,15.795
		c-3.944,5.158-6.869,9.773-8.774,13.845c4.072-1.906,8.84-4.723,14.3-8.451c5.46-3.724,11.115-7.884,16.965-12.479
		c5.85-4.593,11.59-9.403,17.225-14.431c5.633-5.024,10.681-9.835,15.146-14.43c4.463-4.593,8.08-8.71,10.854-12.35
		C621.771,32.663,623.157,29.933,623.157,28.113z"/>
	<path d="M663.846,26.813c0,2.34-1.365,5.439-4.095,9.295c-2.73,3.857-6.37,8.082-10.92,12.675
		c-4.55,4.595-9.75,9.383-15.601,14.365c-5.85,4.984-11.895,9.837-18.135,14.56c-6.24,4.726-12.438,9.101-18.59,13.13
		c-6.154,4.029-11.787,7.432-16.9,10.205c-0.347,0.955-0.629,1.885-0.845,2.795c-0.217,0.91-0.282,1.713-0.194,2.404
		c0.172,2.516,0.865,4.205,2.079,5.07c1.213,0.867,2.644,1.301,4.29,1.301c1.386,0,2.815-0.215,4.29-0.65
		c1.473-0.432,2.86-0.91,4.16-1.43s2.405-1.018,3.315-1.496c0.91-0.475,1.495-0.756,1.755-0.844c0.952-0.52,2.21-1.213,3.77-2.08
		c1.561-0.865,3.12-1.756,4.681-2.666c1.56-0.91,2.989-1.732,4.29-2.469c1.3-0.736,2.122-1.277,2.47-1.625
		c0.433-0.26,0.735-0.391,0.91-0.391c0.345,0,0.52,0.174,0.52,0.52c0,0.521-0.478,1.041-1.43,1.561
		c-0.435,0.26-1.322,0.824-2.665,1.689c-1.345,0.867-2.99,1.885-4.94,3.055c-1.949,1.17-4.14,2.385-6.564,3.641
		c-2.428,1.258-4.94,2.404-7.54,3.445c-1.734,0.693-3.425,1.234-5.07,1.625c-1.647,0.391-3.207,0.584-4.68,0.584
		c-2.34,0-4.29-0.564-5.851-1.689c-1.56-1.125-2.34-2.99-2.34-5.59c0-2.859,0.996-6.24,2.99-10.141
		c1.993-3.898,4.7-8.102,8.125-12.609c3.423-4.506,7.345-9.143,11.765-13.91c4.421-4.766,9.056-9.445,13.91-14.04
		c4.853-4.593,9.75-8.926,14.69-13c4.939-4.072,9.62-7.647,14.04-10.725c4.42-3.076,8.405-5.503,11.96-7.28
		c3.553-1.775,6.325-2.665,8.32-2.665c1.125,0,2.079,0.26,2.859,0.78C663.456,24.733,663.846,25.6,663.846,26.813z M659.426,28.113
		c0-1.3-0.607-1.95-1.82-1.95c-2.079,0-5.18,1.215-9.295,3.641c-4.117,2.427-8.71,5.635-13.779,9.62
		c-5.07,3.987-10.357,8.537-15.86,13.649c-5.505,5.115-10.747,10.357-15.729,15.73c-4.985,5.374-9.448,10.64-13.391,15.795
		c-3.944,5.158-6.869,9.773-8.774,13.845c4.072-1.906,8.84-4.723,14.3-8.451c5.46-3.724,11.115-7.884,16.965-12.479
		c5.85-4.593,11.59-9.403,17.225-14.431c5.633-5.024,10.681-9.835,15.146-14.43c4.463-4.593,8.08-8.71,10.854-12.35
		C658.039,32.663,659.426,29.933,659.426,28.113z"/>
</g>
</svg>
